<svg xmlns="http://www.w3.org/2000/svg" xmlns:xlink="http://www.w3.org/1999/xlink" width="1920" zoomAndPan="magnify" viewBox="0 0 1440 809.999993" height="1080" preserveAspectRatio="xMidYMid meet" version="1.0"><defs><clipPath id="796938ceed"><path d="M 81 425 L 95 425 L 95 439 L 81 439 Z M 81 425 " clip-rule="nonzero"/></clipPath></defs><path fill="#ffffff" d="M 725.480469 416.722656 C 725.480469 416.722656 783.988281 432.988281 856.007812 404.898438 C 906.554688 385.183594 943.574219 406.082031 952.421875 428.449219 C 964.042969 457.808594 915.992188 482.199219 896.984375 456.011719 C 877.972656 429.820312 918.101562 426.441406 919.792969 443.339844 C 921.484375 460.234375 946.828125 457.703125 944.925781 436.792969 C 943.027344 415.878906 897.472656 398.617188 831.507812 416.304688 C 764.554688 434.257812 725.480469 416.722656 725.480469 416.722656 Z M 725.480469 416.722656 " fill-opacity="1" fill-rule="nonzero"/><path fill="#ffffff" d="M 791.753906 436.628906 C 791.753906 436.628906 814.179688 431.828125 841.789062 440.117188 C 861.167969 445.9375 875.359375 439.769531 878.753906 433.167969 C 883.207031 424.503906 864.785156 417.304688 857.5 425.035156 C 850.210938 432.761719 865.59375 433.761719 866.242188 428.777344 C 866.890625 423.789062 876.605469 424.535156 875.875 430.707031 C 875.148438 436.878906 857.6875 441.972656 832.398438 436.75 C 806.734375 431.453125 791.753906 436.628906 791.753906 436.628906 Z M 791.753906 436.628906 " fill-opacity="1" fill-rule="nonzero"/><path fill="#ffffff" d="M 793.441406 412.285156 C 793.441406 415.085938 791.171875 417.355469 788.375 417.355469 C 785.574219 417.355469 783.304688 415.085938 783.304688 412.285156 C 783.304688 409.484375 785.574219 407.214844 788.375 407.214844 C 791.171875 407.214844 793.441406 409.484375 793.441406 412.285156 Z M 793.441406 412.285156 " fill-opacity="1" fill-rule="nonzero"/><path fill="#ffffff" d="M 814.777344 408.695312 C 814.777344 411.496094 812.503906 413.761719 809.707031 413.761719 C 806.90625 413.761719 804.636719 411.496094 804.636719 408.695312 C 804.636719 405.894531 806.90625 403.625 809.707031 403.625 C 812.503906 403.625 814.777344 405.894531 814.777344 408.695312 Z M 814.777344 408.695312 " fill-opacity="1" fill-rule="nonzero"/><path fill="#ffffff" d="M 839.277344 401.832031 C 839.277344 406.089844 835.824219 409.539062 831.566406 409.539062 C 827.308594 409.539062 823.855469 406.089844 823.855469 401.832031 C 823.855469 397.574219 827.308594 394.121094 831.566406 394.121094 C 835.824219 394.121094 839.277344 397.574219 839.277344 401.832031 Z M 839.277344 401.832031 " fill-opacity="1" fill-rule="nonzero"/><path fill="#ffffff" d="M 1007.40625 435.3125 C 1007.535156 434.460938 1004.046875 433.15625 998.632812 431.859375 C 1003.996094 430.359375 1007.425781 428.921875 1007.265625 428.078125 C 1007.101562 427.234375 1003.378906 427.179688 997.84375 427.792969 C 1002.382812 424.570312 1005.128906 422.054688 1004.6875 421.316406 C 1004.25 420.574219 1000.730469 421.785156 995.726562 424.234375 C 998.910156 419.664062 1000.644531 416.371094 999.980469 415.820312 C 999.3125 415.273438 996.410156 417.601562 992.53125 421.597656 C 993.984375 416.222656 994.5 412.535156 993.6875 412.242188 C 992.878906 411.953125 990.933594 415.125 988.632812 420.199219 C 988.183594 414.644531 987.421875 411.003906 986.5625 411.003906 C 985.65625 411.003906 984.867188 415.039062 984.425781 421.074219 C 981.757812 415.640625 979.515625 412.191406 978.675781 412.53125 C 977.878906 412.851562 978.539062 416.515625 980.191406 421.832031 C 976.164062 417.988281 973.171875 415.773438 972.527344 416.347656 C 971.886719 416.917969 973.746094 420.148438 977.101562 424.589844 C 972.007812 422.335938 968.445312 421.257812 968.035156 422.015625 C 967.621094 422.773438 970.460938 425.179688 975.121094 428.230469 C 969.566406 427.828125 965.847656 428.023438 965.71875 428.871094 C 965.585938 429.722656 969.074219 431.03125 974.488281 432.324219 C 969.125 433.824219 965.691406 435.261719 965.855469 436.109375 C 966.019531 436.953125 969.742188 437.003906 975.273438 436.390625 C 970.734375 439.617188 967.992188 442.128906 968.433594 442.867188 C 968.871094 443.609375 972.390625 442.398438 977.394531 439.953125 C 974.210938 444.519531 972.476562 447.816406 973.140625 448.363281 C 973.804688 448.910156 976.710938 446.582031 980.589844 442.589844 C 979.140625 447.964844 978.621094 451.652344 979.433594 451.941406 C 980.242188 452.234375 982.1875 449.058594 984.492188 443.988281 C 984.941406 449.539062 985.703125 453.183594 986.5625 453.183594 C 987.464844 453.183594 988.257812 449.144531 988.699219 443.109375 C 991.363281 448.542969 993.605469 451.992188 994.445312 451.65625 C 995.242188 451.332031 994.585938 447.667969 992.925781 442.351562 C 996.957031 446.195312 999.949219 448.410156 1000.59375 447.835938 C 1001.234375 447.265625 999.375 444.039062 996.019531 439.59375 C 1001.113281 441.847656 1004.675781 442.925781 1005.085938 442.167969 C 1005.5 441.414062 1002.660156 439.003906 998 435.957031 C 1003.554688 436.355469 1007.273438 436.164062 1007.40625 435.3125 Z M 1007.40625 435.3125 " fill-opacity="1" fill-rule="nonzero"/><path fill="#ffffff" d="M 1035.984375 433.414062 C 1036.035156 433.0625 1034.609375 432.527344 1032.390625 431.996094 C 1034.589844 431.382812 1035.996094 430.792969 1035.925781 430.449219 C 1035.859375 430.101562 1034.335938 430.082031 1032.070312 430.332031 C 1033.925781 429.011719 1035.050781 427.980469 1034.871094 427.679688 C 1034.691406 427.375 1033.25 427.871094 1031.199219 428.871094 C 1032.503906 427.003906 1033.214844 425.652344 1032.941406 425.429688 C 1032.667969 425.203125 1031.480469 426.15625 1029.890625 427.792969 C 1030.484375 425.589844 1030.695312 424.082031 1030.363281 423.964844 C 1030.035156 423.84375 1029.238281 425.144531 1028.292969 427.222656 C 1028.109375 424.949219 1027.800781 423.453125 1027.445312 423.453125 C 1027.078125 423.453125 1026.753906 425.109375 1026.570312 427.582031 C 1025.476562 425.355469 1024.5625 423.941406 1024.21875 424.078125 C 1023.890625 424.210938 1024.160156 425.714844 1024.839844 427.890625 C 1023.1875 426.320312 1021.960938 425.410156 1021.699219 425.644531 C 1021.433594 425.878906 1022.195312 427.199219 1023.570312 429.019531 C 1021.484375 428.097656 1020.027344 427.65625 1019.859375 427.964844 C 1019.691406 428.273438 1020.851562 429.261719 1022.761719 430.511719 C 1020.488281 430.347656 1018.964844 430.425781 1018.910156 430.773438 C 1018.855469 431.121094 1020.285156 431.65625 1022.5 432.1875 C 1020.304688 432.800781 1018.902344 433.390625 1018.96875 433.734375 C 1019.035156 434.082031 1020.558594 434.105469 1022.824219 433.851562 C 1020.964844 435.171875 1019.839844 436.203125 1020.019531 436.507812 C 1020.203125 436.808594 1021.644531 436.3125 1023.691406 435.3125 C 1022.386719 437.183594 1021.675781 438.53125 1021.949219 438.757812 C 1022.222656 438.984375 1023.414062 438.027344 1025 436.390625 C 1024.40625 438.59375 1024.195312 440.101562 1024.527344 440.222656 C 1024.855469 440.339844 1025.65625 439.039062 1026.597656 436.964844 C 1026.785156 439.238281 1027.09375 440.730469 1027.445312 440.730469 C 1027.816406 440.730469 1028.140625 439.078125 1028.320312 436.601562 C 1029.414062 438.828125 1030.332031 440.242188 1030.675781 440.105469 C 1031 439.972656 1030.730469 438.472656 1030.054688 436.292969 C 1031.703125 437.867188 1032.929688 438.777344 1033.191406 438.542969 C 1033.457031 438.308594 1032.691406 436.988281 1031.320312 435.164062 C 1033.40625 436.089844 1034.867188 436.53125 1035.035156 436.21875 C 1035.203125 435.910156 1034.042969 434.921875 1032.132812 433.675781 C 1034.40625 433.839844 1035.929688 433.757812 1035.984375 433.414062 Z M 1035.984375 433.414062 " fill-opacity="1" fill-rule="nonzero"/><path fill="#ffffff" d="M 1051.074219 432.09375 C 1051.074219 433.085938 1050.273438 433.886719 1049.28125 433.886719 C 1048.289062 433.886719 1047.488281 433.085938 1047.488281 432.09375 C 1047.488281 431.101562 1048.289062 430.296875 1049.28125 430.296875 C 1050.273438 430.296875 1051.074219 431.101562 1051.074219 432.09375 Z M 1051.074219 432.09375 " fill-opacity="1" fill-rule="nonzero"/><path fill="#ffffff" d="M 1159.519531 432.09375 C 1159.519531 432.558594 1159.144531 432.9375 1158.675781 432.9375 L 1063.421875 432.9375 C 1062.957031 432.9375 1062.578125 432.558594 1062.578125 432.09375 C 1062.578125 431.625 1062.957031 431.246094 1063.421875 431.246094 L 1158.675781 431.246094 C 1159.144531 431.246094 1159.519531 431.625 1159.519531 432.09375 Z M 1159.519531 432.09375 " fill-opacity="1" fill-rule="nonzero"/><path fill="#ffffff" d="M 1198.519531 428.914062 C 1197.515625 433.628906 1195.738281 436.660156 1191.308594 439.882812 C 1189.578125 442 1178.148438 444.621094 1173.855469 436.34375 C 1169.242188 427.984375 1177.535156 422.28125 1177.3125 423.113281 C 1177.304688 423.195312 1178.917969 422 1181.785156 422.1875 C 1184.503906 422.207031 1188.269531 425.019531 1188.121094 429.136719 C 1188.238281 433.101562 1182.800781 435.960938 1180.265625 433.449219 C 1177.335938 431.207031 1179.199219 427.730469 1180.328125 427.535156 C 1182.496094 426.222656 1184.65625 428.164062 1184.304688 429.882812 C 1184.429688 431.695312 1180.84375 432.699219 1180.4375 429.886719 C 1180.074219 432.882812 1184.976562 433.035156 1185.371094 430.105469 C 1186.359375 427.585938 1182.796875 424.265625 1179.625 426.230469 C 1177.859375 426.59375 1175.359375 431.640625 1179.339844 434.621094 C 1182.992188 437.957031 1189.714844 434.230469 1189.613281 429.167969 C 1189.792969 424.144531 1185.207031 420.714844 1181.886719 420.703125 C 1178.53125 420.492188 1176.636719 421.878906 1176.648438 421.789062 C 1176.707031 421.796875 1174.523438 422.574219 1172.667969 425.339844 C 1170.691406 428.046875 1170.3125 432.992188 1172.546875 437.0625 C 1177.5 446.460938 1190.273438 443.460938 1192.105469 441.132812 C 1197.039062 437.570312 1198.480469 433.699219 1198.519531 428.914062 Z M 1198.519531 428.914062 " fill-opacity="1" fill-rule="nonzero"/><path fill="#ffffff" d="M 1233.738281 428.914062 C 1233.777344 433.699219 1235.21875 437.570312 1240.152344 441.132812 C 1241.988281 443.460938 1254.757812 446.460938 1259.710938 437.0625 C 1261.949219 432.992188 1261.566406 428.046875 1259.589844 425.339844 C 1257.734375 422.574219 1255.554688 421.796875 1255.609375 421.789062 C 1255.621094 421.878906 1253.726562 420.492188 1250.371094 420.703125 C 1247.054688 420.714844 1242.46875 424.144531 1242.644531 429.167969 C 1242.546875 434.230469 1249.269531 437.957031 1252.921875 434.621094 C 1256.902344 431.640625 1254.394531 426.59375 1252.632812 426.230469 C 1249.464844 424.261719 1245.902344 427.585938 1246.886719 430.105469 C 1247.28125 433.035156 1252.183594 432.882812 1251.820312 429.886719 C 1251.414062 432.699219 1247.832031 431.695312 1247.953125 429.882812 C 1247.601562 428.164062 1249.765625 426.222656 1251.929688 427.535156 C 1253.0625 427.730469 1254.925781 431.207031 1251.996094 433.449219 C 1249.457031 435.960938 1244.019531 433.101562 1244.136719 429.136719 C 1243.992188 425.019531 1247.75 422.207031 1250.476562 422.1875 C 1253.339844 422 1254.953125 423.195312 1254.945312 423.113281 C 1254.722656 422.28125 1263.019531 427.984375 1258.398438 436.34375 C 1254.113281 444.621094 1242.683594 442 1240.953125 439.882812 C 1236.519531 436.660156 1234.746094 433.628906 1233.738281 428.914062 Z M 1233.738281 428.914062 " fill-opacity="1" fill-rule="nonzero"/><path fill="#ffffff" d="M 1219.910156 437.898438 L 1216.132812 435.914062 L 1212.359375 437.90625 L 1213.078125 433.699219 L 1210.023438 430.726562 L 1214.242188 430.109375 L 1216.125 426.28125 L 1218.015625 430.105469 L 1222.238281 430.714844 L 1219.1875 433.695312 Z M 1219.910156 437.898438 " fill-opacity="1" fill-rule="nonzero"/><path fill="#ffffff" d="M 1279.457031 439.265625 L 1272.738281 443.144531 L 1272.738281 446.4375 L 1297.582031 432.09375 L 1285.160156 424.917969 L 1272.738281 417.746094 L 1272.738281 421.039062 L 1279.457031 424.917969 L 1291.882812 432.09375 Z M 1279.457031 439.265625 " fill-opacity="1" fill-rule="nonzero"/><path fill="#ffffff" d="M 1315.808594 439.265625 L 1309.085938 443.144531 L 1309.085938 446.4375 L 1321.511719 439.265625 L 1333.933594 432.09375 L 1321.511719 424.917969 L 1309.085938 417.746094 L 1309.085938 421.039062 L 1315.808594 424.917969 L 1328.230469 432.09375 Z M 1315.808594 439.265625 " fill-opacity="1" fill-rule="nonzero"/><path fill="#ffffff" d="M 1358.582031 432.09375 C 1358.582031 435.722656 1355.640625 438.667969 1352.007812 438.667969 C 1348.378906 438.667969 1345.433594 435.722656 1345.433594 432.09375 C 1345.433594 428.460938 1348.378906 425.515625 1352.007812 425.515625 C 1355.640625 425.515625 1358.582031 428.460938 1358.582031 432.09375 Z M 1358.582031 432.09375 " fill-opacity="1" fill-rule="nonzero"/><path fill="#ffffff" d="M 713.980469 416.722656 C 713.980469 416.722656 655.476562 432.988281 583.457031 404.898438 C 532.90625 385.183594 495.886719 406.082031 487.039062 428.449219 C 475.421875 457.808594 523.472656 482.199219 542.476562 456.011719 C 561.488281 429.820312 521.359375 426.441406 519.667969 443.339844 C 517.980469 460.234375 492.636719 457.703125 494.535156 436.792969 C 496.433594 415.878906 541.988281 398.617188 607.953125 416.304688 C 674.90625 434.257812 713.980469 416.722656 713.980469 416.722656 Z M 713.980469 416.722656 " fill-opacity="1" fill-rule="nonzero"/><path fill="#ffffff" d="M 647.710938 436.628906 C 647.710938 436.628906 625.28125 431.828125 597.671875 440.117188 C 578.292969 445.9375 564.105469 439.769531 560.710938 433.167969 C 556.257812 424.503906 574.675781 417.304688 581.964844 425.035156 C 589.25 432.761719 573.867188 433.761719 573.21875 428.777344 C 572.574219 423.789062 562.855469 424.535156 563.585938 430.707031 C 564.3125 436.878906 581.773438 441.972656 607.066406 436.75 C 632.730469 431.453125 647.710938 436.628906 647.710938 436.628906 Z M 647.710938 436.628906 " fill-opacity="1" fill-rule="nonzero"/><path fill="#ffffff" d="M 646.019531 412.285156 C 646.019531 415.085938 648.289062 417.355469 651.089844 417.355469 C 653.890625 417.355469 656.160156 415.085938 656.160156 412.285156 C 656.160156 409.484375 653.890625 407.214844 651.089844 407.214844 C 648.289062 407.214844 646.019531 409.484375 646.019531 412.285156 Z M 646.019531 412.285156 " fill-opacity="1" fill-rule="nonzero"/><path fill="#ffffff" d="M 624.6875 408.695312 C 624.6875 411.496094 626.957031 413.761719 629.757812 413.761719 C 632.558594 413.761719 634.828125 411.496094 634.828125 408.695312 C 634.828125 405.894531 632.558594 403.625 629.757812 403.625 C 626.957031 403.625 624.6875 405.894531 624.6875 408.695312 Z M 624.6875 408.695312 " fill-opacity="1" fill-rule="nonzero"/><path fill="#ffffff" d="M 600.1875 401.832031 C 600.1875 406.089844 603.640625 409.539062 607.894531 409.539062 C 612.15625 409.539062 615.605469 406.089844 615.605469 401.832031 C 615.605469 397.574219 612.15625 394.121094 607.894531 394.121094 C 603.640625 394.121094 600.1875 397.574219 600.1875 401.832031 Z M 600.1875 401.832031 " fill-opacity="1" fill-rule="nonzero"/><path fill="#ffffff" d="M 432.058594 435.3125 C 431.925781 434.460938 435.410156 433.15625 440.828125 431.859375 C 435.464844 430.359375 432.03125 428.921875 432.195312 428.078125 C 432.359375 427.234375 436.082031 427.179688 441.617188 427.792969 C 437.078125 424.570312 434.332031 422.054688 434.773438 421.316406 C 435.210938 420.574219 438.734375 421.785156 443.734375 424.234375 C 440.550781 419.664062 438.816406 416.371094 439.484375 415.820312 C 440.144531 415.273438 443.050781 417.601562 446.929688 421.597656 C 445.480469 416.222656 444.960938 412.535156 445.769531 412.242188 C 446.582031 411.953125 448.527344 415.125 450.832031 420.199219 C 451.28125 414.644531 452.039062 411.003906 452.902344 411.003906 C 453.804688 411.003906 454.597656 415.039062 455.039062 421.074219 C 457.703125 415.640625 459.945312 412.191406 460.785156 412.53125 C 461.582031 412.851562 460.921875 416.515625 459.269531 421.832031 C 463.296875 417.988281 466.289062 415.773438 466.933594 416.347656 C 467.574219 416.917969 465.71875 420.148438 462.363281 424.589844 C 467.453125 422.335938 471.019531 421.257812 471.429688 422.015625 C 471.839844 422.773438 469 425.179688 464.339844 428.230469 C 469.894531 427.828125 473.613281 428.023438 473.746094 428.871094 C 473.875 429.722656 470.386719 431.03125 464.972656 432.324219 C 470.335938 433.824219 473.769531 435.261719 473.605469 436.109375 C 473.441406 436.953125 469.71875 437.003906 464.183594 436.390625 C 468.722656 439.617188 471.46875 442.128906 471.03125 442.867188 C 470.589844 443.609375 467.070312 442.398438 462.070312 439.953125 C 465.25 444.519531 466.984375 447.816406 466.320312 448.363281 C 465.65625 448.910156 462.75 446.582031 458.871094 442.589844 C 460.320312 447.964844 460.839844 451.652344 460.03125 451.941406 C 459.21875 452.234375 457.273438 449.058594 454.972656 443.988281 C 454.519531 449.539062 453.761719 453.183594 452.902344 453.183594 C 451.996094 453.183594 451.207031 449.144531 450.765625 443.109375 C 448.097656 448.542969 445.855469 451.992188 445.015625 451.65625 C 444.21875 451.332031 444.875 447.667969 446.53125 442.351562 C 442.503906 446.195312 439.511719 448.410156 438.867188 447.835938 C 438.226562 447.265625 440.085938 444.039062 443.441406 439.59375 C 438.351562 441.847656 434.785156 442.925781 434.371094 442.167969 C 433.960938 441.414062 436.800781 439.003906 441.460938 435.957031 C 435.90625 436.355469 432.1875 436.164062 432.058594 435.3125 Z M 432.058594 435.3125 " fill-opacity="1" fill-rule="nonzero"/><path fill="#ffffff" d="M 403.480469 433.414062 C 403.425781 433.0625 404.855469 432.527344 407.070312 431.996094 C 404.875 431.382812 403.46875 430.792969 403.535156 430.449219 C 403.601562 430.101562 405.125 430.082031 407.394531 430.332031 C 405.535156 429.011719 404.410156 427.980469 404.589844 427.679688 C 404.769531 427.375 406.214844 427.871094 408.261719 428.871094 C 406.957031 427.003906 406.25 425.652344 406.519531 425.429688 C 406.792969 425.203125 407.980469 426.15625 409.570312 427.792969 C 408.976562 425.589844 408.761719 424.082031 409.09375 423.964844 C 409.425781 423.84375 410.222656 425.144531 411.167969 427.222656 C 411.351562 424.949219 411.664062 423.453125 412.015625 423.453125 C 412.386719 423.453125 412.710938 425.109375 412.890625 427.582031 C 413.980469 425.355469 414.898438 423.941406 415.242188 424.078125 C 415.570312 424.210938 415.300781 425.714844 414.621094 427.890625 C 416.273438 426.320312 417.5 425.410156 417.761719 425.644531 C 418.023438 425.878906 417.265625 427.199219 415.890625 429.019531 C 417.976562 428.097656 419.4375 427.65625 419.605469 427.964844 C 419.773438 428.273438 418.609375 429.261719 416.703125 430.511719 C 418.976562 430.347656 420.5 430.425781 420.550781 430.773438 C 420.605469 431.121094 419.179688 431.65625 416.960938 432.1875 C 419.15625 432.800781 420.5625 433.390625 420.496094 433.734375 C 420.429688 434.082031 418.902344 434.105469 416.636719 433.851562 C 418.496094 435.171875 419.621094 436.203125 419.441406 436.507812 C 419.261719 436.808594 417.820312 436.3125 415.769531 435.3125 C 417.074219 437.183594 417.785156 438.53125 417.511719 438.757812 C 417.238281 438.984375 416.050781 438.027344 414.460938 436.390625 C 415.054688 438.59375 415.265625 440.101562 414.933594 440.222656 C 414.605469 440.339844 413.804688 439.039062 412.863281 436.964844 C 412.679688 439.238281 412.367188 440.730469 412.015625 440.730469 C 411.644531 440.730469 411.320312 439.078125 411.140625 436.601562 C 410.046875 438.828125 409.128906 440.242188 408.789062 440.105469 C 408.460938 439.972656 408.726562 438.472656 409.40625 436.292969 C 407.757812 437.867188 406.53125 438.777344 406.269531 438.542969 C 406.003906 438.308594 406.765625 436.988281 408.140625 435.164062 C 406.054688 436.089844 404.597656 436.53125 404.425781 436.21875 C 404.257812 435.910156 405.421875 434.921875 407.332031 433.675781 C 405.054688 433.839844 403.53125 433.757812 403.480469 433.414062 Z M 403.480469 433.414062 " fill-opacity="1" fill-rule="nonzero"/><path fill="#ffffff" d="M 388.386719 432.09375 C 388.386719 433.085938 389.1875 433.886719 390.179688 433.886719 C 391.171875 433.886719 391.976562 433.085938 391.976562 432.09375 C 391.976562 431.101562 391.171875 430.296875 390.179688 430.296875 C 389.1875 430.296875 388.386719 431.101562 388.386719 432.09375 Z M 388.386719 432.09375 " fill-opacity="1" fill-rule="nonzero"/><path fill="#ffffff" d="M 279.941406 432.09375 C 279.941406 432.558594 280.316406 432.9375 280.785156 432.9375 L 376.039062 432.9375 C 376.507812 432.9375 376.882812 432.558594 376.882812 432.09375 C 376.882812 431.625 376.507812 431.246094 376.039062 431.246094 L 280.785156 431.246094 C 280.316406 431.246094 279.941406 431.625 279.941406 432.09375 Z M 279.941406 432.09375 " fill-opacity="1" fill-rule="nonzero"/><path fill="#ffffff" d="M 240.941406 428.914062 C 241.949219 433.628906 243.722656 436.660156 248.15625 439.882812 C 249.886719 442 261.316406 444.621094 265.605469 436.34375 C 270.222656 427.984375 261.925781 422.28125 262.148438 423.113281 C 262.15625 423.195312 260.542969 422 257.675781 422.1875 C 254.953125 422.207031 251.195312 425.019531 251.339844 429.136719 C 251.222656 433.101562 256.660156 435.960938 259.199219 433.449219 C 262.128906 431.207031 260.265625 427.730469 259.132812 427.535156 C 256.96875 426.222656 254.804688 428.164062 255.15625 429.882812 C 255.035156 431.695312 258.617188 432.699219 259.023438 429.886719 C 259.390625 432.882812 254.484375 433.035156 254.089844 430.105469 C 253.105469 427.585938 256.667969 424.265625 259.835938 426.230469 C 261.601562 426.59375 264.105469 431.640625 260.125 434.621094 C 256.472656 437.957031 249.746094 434.230469 249.847656 429.167969 C 249.671875 424.144531 254.253906 420.714844 257.574219 420.703125 C 260.929688 420.492188 262.824219 421.878906 262.8125 421.789062 C 262.757812 421.796875 264.9375 422.574219 266.792969 425.339844 C 268.769531 428.046875 269.152344 432.992188 266.914062 437.0625 C 261.960938 446.460938 249.1875 443.460938 247.355469 441.132812 C 242.421875 437.570312 240.980469 433.699219 240.941406 428.914062 Z M 240.941406 428.914062 " fill-opacity="1" fill-rule="nonzero"/><path fill="#ffffff" d="M 205.722656 428.914062 C 205.6875 433.699219 204.242188 437.570312 199.308594 441.132812 C 197.476562 443.460938 184.703125 446.460938 179.75 437.0625 C 177.515625 432.992188 177.894531 428.046875 179.871094 425.339844 C 181.726562 422.574219 183.910156 421.796875 183.851562 421.789062 C 183.839844 421.878906 185.734375 420.492188 189.089844 420.703125 C 192.410156 420.714844 196.996094 424.144531 196.816406 429.167969 C 196.917969 434.230469 190.191406 437.957031 186.542969 434.621094 C 182.558594 431.640625 185.066406 426.59375 186.828125 426.230469 C 189.996094 424.261719 193.5625 427.585938 192.574219 430.105469 C 192.179688 433.035156 187.273438 432.882812 187.640625 429.886719 C 188.046875 432.699219 191.628906 431.695312 191.507812 429.882812 C 191.859375 428.164062 189.695312 426.222656 187.53125 427.535156 C 186.402344 427.730469 184.535156 431.207031 187.46875 433.449219 C 190.003906 435.960938 195.441406 433.101562 195.324219 429.136719 C 195.472656 425.019531 191.710938 422.207031 188.988281 422.1875 C 186.121094 422 184.507812 423.195312 184.515625 423.113281 C 184.738281 422.28125 176.441406 427.984375 181.058594 436.34375 C 185.351562 444.621094 196.78125 442 198.507812 439.882812 C 202.941406 436.660156 204.714844 433.628906 205.722656 428.914062 Z M 205.722656 428.914062 " fill-opacity="1" fill-rule="nonzero"/><path fill="#ffffff" d="M 219.554688 437.898438 L 223.328125 435.914062 L 227.101562 437.90625 L 226.382812 433.699219 L 229.441406 430.726562 L 225.222656 430.109375 L 223.335938 426.28125 L 221.445312 430.105469 L 217.226562 430.714844 L 220.277344 433.695312 Z M 219.554688 437.898438 " fill-opacity="1" fill-rule="nonzero"/><path fill="#ffffff" d="M 147.578125 432.09375 L 160.003906 424.917969 L 166.726562 421.039062 L 166.726562 417.746094 L 154.300781 424.917969 L 141.875 432.09375 L 166.726562 446.4375 L 166.726562 443.144531 L 160.003906 439.265625 Z M 147.578125 432.09375 " fill-opacity="1" fill-rule="nonzero"/><path fill="#ffffff" d="M 111.230469 432.09375 L 123.65625 424.917969 L 130.378906 421.039062 L 130.378906 417.746094 L 117.953125 424.917969 L 105.527344 432.09375 L 130.378906 446.4375 L 130.378906 443.144531 L 123.65625 439.265625 Z M 111.230469 432.09375 " fill-opacity="1" fill-rule="nonzero"/><g clip-path="url(#796938ceed)"><path fill="#ffffff" d="M 80.878906 432.09375 C 80.878906 435.722656 83.820312 438.667969 87.453125 438.667969 C 91.085938 438.667969 94.027344 435.722656 94.027344 432.09375 C 94.027344 428.460938 91.085938 425.515625 87.453125 425.515625 C 83.820312 425.515625 80.878906 428.460938 80.878906 432.09375 Z M 80.878906 432.09375 " fill-opacity="1" fill-rule="nonzero"/></g><path fill="#ffffff" d="M 765.402344 339.351562 C 765.402344 339.351562 752.019531 348.714844 737.800781 360.539062 C 730.742188 343.242188 720.492188 327.878906 720.492188 327.878906 C 720.492188 327.878906 710.242188 343.242188 703.1875 360.539062 C 688.96875 348.714844 675.585938 339.351562 675.585938 339.351562 C 675.585938 339.351562 666.847656 408.296875 720.492188 408.296875 C 774.140625 408.296875 765.402344 339.351562 765.402344 339.351562 Z M 765.402344 339.351562 " fill-opacity="1" fill-rule="nonzero"/><path fill="#ffffff" d="M 735.914062 449.980469 C 735.914062 449.980469 731.320312 446.765625 726.4375 442.707031 C 724.011719 448.644531 720.492188 453.921875 720.492188 453.921875 C 720.492188 453.921875 716.972656 448.644531 714.550781 442.707031 C 709.667969 446.765625 705.070312 449.980469 705.070312 449.980469 C 705.070312 449.980469 702.074219 426.308594 720.492188 426.308594 C 738.914062 426.308594 735.914062 449.980469 735.914062 449.980469 Z M 735.914062 449.980469 " fill-opacity="1" fill-rule="nonzero"/></svg>