<svg xmlns="http://www.w3.org/2000/svg" xmlns:xlink="http://www.w3.org/1999/xlink" width="1920" zoomAndPan="magnify" viewBox="0 0 1440 809.999993" height="1080" preserveAspectRatio="xMidYMid meet" version="1.0"><defs><clipPath id="060e663663"><path d="M 63 161 L 1376 161 L 1376 649.144531 L 63 649.144531 Z M 63 161 " clip-rule="nonzero"/></clipPath></defs><path fill="#def1f9" d="M 1125.558594 492.089844 C 1123.585938 490.121094 1120.957031 488.804688 1119.644531 487.492188 C 1111.761719 478.949219 1101.90625 473.691406 1091.394531 469.089844 C 1066.429688 457.921875 1040.808594 449.378906 1015.1875 440.179688 C 1008.617188 438.207031 1002.707031 434.921875 996.136719 432.292969 C 975.113281 424.40625 954.089844 417.179688 933.066406 409.292969 C 929.125 407.976562 925.183594 406.007812 921.242188 404.691406 C 904.820312 400.75 888.394531 396.148438 871.972656 393.519531 C 846.347656 388.921875 820.070312 385.636719 794.449219 381.691406 C 783.28125 380.378906 772.769531 379.722656 761.601562 379.066406 C 746.492188 378.40625 731.382812 378.40625 716.929688 379.066406 C 701.160156 379.722656 685.394531 381.691406 670.285156 383.664062 C 660.429688 384.980469 650.574219 385.636719 640.0625 387.605469 C 621.011719 390.894531 601.304688 394.179688 582.25 397.464844 C 568.457031 400.09375 554.660156 402.722656 540.863281 406.007812 C 504.074219 415.207031 467.941406 425.0625 432.464844 438.207031 C 409.472656 446.75 385.820312 453.976562 362.828125 462.519531 C 354.285156 465.804688 344.433594 467.777344 338.519531 476.976562 C 337.207031 473.035156 335.890625 469.75 334.578125 466.464844 C 328.664062 441.492188 322.097656 417.179688 316.183594 392.207031 C 310.929688 369.863281 305.015625 346.863281 300.417969 324.523438 C 296.476562 307.4375 293.847656 290.351562 289.90625 273.265625 C 287.933594 263.410156 291.21875 259.464844 299.101562 255.523438 C 312.242188 248.953125 326.039062 243.039062 339.175781 237.78125 C 357.570312 230.550781 375.964844 223.980469 394.363281 218.066406 C 410.128906 212.808594 426.550781 208.867188 442.320312 204.265625 C 467.941406 197.695312 493.5625 190.46875 519.183594 184.554688 C 546.777344 177.980469 574.367188 173.382812 602.617188 171.410156 C 619.042969 170.753906 634.808594 168.78125 651.234375 168.125 C 663.714844 167.46875 675.539062 167.46875 688.023438 166.808594 C 700.503906 166.808594 713.644531 166.152344 726.125 166.152344 C 753.0625 166.152344 779.996094 167.46875 806.933594 170.097656 C 818.101562 171.410156 829.269531 171.410156 839.78125 172.066406 C 873.285156 174.695312 906.789062 179.296875 939.636719 187.179688 C 953.433594 190.46875 967.886719 193.753906 981.683594 197.039062 C 990.222656 199.011719 998.765625 201.636719 1007.304688 204.265625 C 1018.472656 208.210938 1030.296875 211.496094 1041.464844 216.09375 C 1065.117188 225.953125 1088.765625 236.464844 1112.417969 246.980469 C 1126.214844 252.894531 1140.011719 258.808594 1153.148438 265.378906 C 1161.03125 269.324219 1168.257812 273.921875 1176.144531 278.523438 C 1179.429688 280.496094 1180.085938 283.121094 1179.429688 286.410156 C 1177.457031 293.636719 1176.144531 300.867188 1173.515625 307.4375 C 1164.316406 333.722656 1156.433594 360.007812 1149.863281 386.949219 C 1144.609375 409.949219 1140.011719 433.605469 1135.410156 456.605469 C 1133.441406 468.433594 1131.46875 480.261719 1125.558594 492.089844 Z M 1125.558594 492.089844 " fill-opacity="1" fill-rule="nonzero"/><path fill="#def1f9" d="M 238.664062 472.378906 C 233.40625 471.71875 228.808594 471.71875 224.210938 470.40625 C 203.1875 464.492188 182.820312 459.234375 161.796875 452.664062 C 150.628906 449.378906 139.460938 444.777344 128.292969 440.835938 C 116.46875 436.890625 104.644531 435.578125 92.160156 436.890625 C 85.589844 437.550781 79.019531 438.207031 71.136719 439.519531 C 73.109375 436.890625 73.765625 435.578125 75.078125 434.921875 C 104.644531 412.578125 136.175781 392.863281 170.339844 378.40625 C 193.988281 368.550781 216.984375 356.722656 240.632812 346.863281 C 259.027344 338.980469 277.421875 332.40625 296.476562 325.179688 C 297.132812 328.464844 298.445312 330.4375 298.445312 332.40625 C 305.015625 361.980469 312.242188 390.894531 318.8125 420.464844 C 323.410156 439.519531 328.007812 458.578125 333.265625 477.632812 C 335.234375 486.175781 341.148438 492.089844 349.03125 495.378906 C 360.199219 499.976562 372.023438 504.578125 383.191406 509.175781 C 389.105469 511.804688 395.675781 514.433594 400.273438 521.664062 C 396.988281 523.632812 394.363281 526.261719 391.078125 527.578125 C 356.257812 544.660156 321.4375 562.40625 284.648438 576.203125 C 259.683594 586.0625 235.378906 597.890625 213.039062 613.660156 C 203.1875 620.230469 193.988281 628.773438 184.792969 636.003906 C 183.476562 636.660156 182.820312 637.976562 180.851562 639.289062 C 180.851562 637.316406 180.191406 635.347656 180.191406 634.03125 C 182.820312 614.976562 188.078125 596.574219 197.273438 579.488281 C 203.84375 565.691406 211.070312 552.546875 216.984375 538.089844 C 224.867188 517.71875 231.4375 496.691406 238.003906 476.320312 C 238.664062 475.003906 238.664062 474.347656 238.664062 472.378906 Z M 238.664062 472.378906 " fill-opacity="1" fill-rule="nonzero"/><path fill="#def1f9" d="M 1167.601562 342.265625 C 1170.886719 343.578125 1173.515625 344.894531 1175.484375 346.207031 C 1190.597656 354.09375 1205.707031 361.980469 1221.472656 369.207031 C 1243.808594 379.722656 1266.148438 389.578125 1288.484375 399.433594 C 1306.878906 407.320312 1325.273438 413.234375 1344.324219 419.148438 C 1349.582031 420.464844 1356.148438 421.121094 1361.40625 421.777344 C 1363.375 421.777344 1365.347656 422.433594 1368.632812 423.09375 C 1364.691406 425.722656 1362.0625 428.347656 1359.433594 429.664062 C 1343.667969 438.207031 1327.902344 446.09375 1312.789062 454.632812 C 1293.738281 465.804688 1273.375 473.691406 1251.695312 478.292969 C 1245.78125 479.605469 1239.867188 479.605469 1233.957031 480.261719 C 1228.699219 480.921875 1224.101562 482.234375 1218.84375 482.890625 C 1220.160156 493.40625 1222.789062 502.605469 1226.730469 511.804688 C 1231.984375 524.289062 1235.925781 536.777344 1241.183594 548.605469 C 1247.75 563.71875 1255.636719 578.175781 1263.519531 592.632812 C 1267.460938 599.859375 1272.058594 607.746094 1276.65625 615.632812 C 1270.089844 614.976562 1264.175781 614.316406 1258.261719 614.316406 C 1235.269531 613.003906 1212.933594 608.402344 1191.253906 602.488281 C 1166.945312 596.574219 1144.609375 586.0625 1122.929688 574.890625 C 1107.820312 567.003906 1092.710938 559.117188 1077.597656 551.234375 C 1073 548.605469 1069.058594 545.976562 1065.117188 543.347656 C 1060.519531 540.0625 1059.863281 537.433594 1064.460938 533.492188 C 1073 525.605469 1082.855469 520.347656 1093.367188 516.40625 C 1101.25 513.121094 1109.789062 510.492188 1117.671875 507.863281 C 1124.898438 505.234375 1128.84375 501.292969 1130.8125 493.40625 C 1135.410156 476.320312 1140.011719 459.234375 1143.296875 441.492188 C 1147.238281 419.148438 1151.179688 396.808594 1157.75 375.121094 C 1161.691406 364.609375 1164.316406 353.4375 1167.601562 342.265625 Z M 1167.601562 342.265625 " fill-opacity="1" fill-rule="nonzero"/><path fill="#def1f9" d="M 397.644531 508.519531 C 381.878906 502.605469 368.082031 496.691406 353.628906 490.777344 C 351.003906 489.460938 347.71875 487.492188 345.746094 485.519531 C 341.804688 481.578125 341.804688 478.292969 346.402344 474.347656 C 347.0625 473.691406 348.375 473.035156 349.6875 472.378906 C 360.199219 467.777344 370.710938 463.835938 382.535156 461.207031 C 387.136719 476.976562 392.390625 492.75 397.644531 508.519531 Z M 397.644531 508.519531 " fill-opacity="1" fill-rule="nonzero"/><path fill="#def1f9" d="M 1090.082031 473.691406 C 1102.5625 477.632812 1117.671875 489.460938 1122.929688 499.976562 C 1103.878906 509.175781 1082.855469 512.460938 1065.773438 525.605469 C 1072.34375 507.863281 1081.539062 491.433594 1090.082031 473.691406 Z M 1090.082031 473.691406 " fill-opacity="1" fill-rule="nonzero"/><g clip-path="url(#060e663663)"><path fill="#000000" d="M 1222.128906 486.175781 C 1226.070312 496.035156 1229.355469 505.890625 1232.640625 515.089844 C 1235.925781 524.289062 1239.210938 534.148438 1243.152344 543.347656 C 1247.09375 552.546875 1251.035156 561.746094 1255.636719 570.949219 C 1260.234375 580.148438 1265.488281 588.03125 1270.089844 597.234375 C 1274.6875 605.777344 1281.914062 613.003906 1285.199219 624.175781 C 1281.257812 623.519531 1278.628906 624.175781 1277.316406 623.519531 C 1272.714844 618.917969 1267.460938 619.574219 1262.203125 619.574219 C 1230.015625 618.261719 1199.136719 611.03125 1168.917969 601.175781 C 1150.523438 595.261719 1132.785156 586.71875 1115.703125 577.519531 C 1102.5625 570.289062 1088.765625 563.0625 1075.628906 555.832031 C 1070.371094 552.546875 1064.460938 549.261719 1059.203125 545.976562 C 1053.949219 542.691406 1053.292969 538.089844 1055.917969 532.832031 C 1063.144531 517.0625 1071.03125 501.949219 1078.914062 486.835938 C 1080.882812 482.234375 1082.855469 478.292969 1085.484375 473.035156 C 1077.597656 469.75 1071.03125 466.464844 1063.804688 463.835938 C 1046.722656 457.261719 1028.984375 452.007812 1011.902344 445.433594 C 996.792969 440.175781 982.339844 433.605469 967.886719 427.691406 C 955.40625 423.09375 941.609375 419.148438 929.125 413.890625 C 914.671875 407.976562 900.21875 404.691406 885.109375 402.0625 C 867.371094 398.777344 849.632812 396.148438 831.898438 393.519531 C 812.1875 390.894531 792.480469 387.605469 772.769531 385.636719 C 761.601562 384.320312 750.433594 384.320312 739.921875 384.980469 C 720.214844 385.636719 700.503906 386.292969 681.453125 388.265625 C 656.488281 390.894531 631.523438 393.519531 606.558594 398.777344 C 585.535156 403.378906 564.515625 407.320312 543.492188 411.265625 C 534.292969 413.234375 525.753906 415.863281 516.554688 418.492188 C 497.503906 423.75 478.453125 429.007812 460.058594 434.921875 C 435.09375 442.804688 410.785156 452.007812 385.820312 460.550781 C 386.476562 463.835938 387.136719 466.464844 387.792969 469.089844 C 393.703125 486.175781 399.617188 503.261719 404.875 520.347656 C 405.53125 522.320312 405.53125 524.289062 405.53125 525.605469 C 380.566406 537.433594 356.257812 549.917969 331.292969 561.089844 C 322.097656 565.691406 312.242188 569.632812 302.386719 573.574219 C 276.109375 583.433594 250.488281 595.261719 226.179688 610.375 C 208.441406 620.890625 192.675781 633.375 178.878906 648.488281 C 178.878906 648.488281 178.222656 648.488281 177.566406 649.144531 C 174.28125 648.488281 174.9375 645.859375 175.59375 643.890625 C 176.910156 635.347656 177.566406 627.460938 179.535156 618.917969 C 183.476562 599.203125 192.019531 581.460938 201.214844 563.71875 C 209.097656 547.949219 216.984375 532.175781 221.582031 515.089844 C 224.210938 505.234375 227.492188 496.035156 230.777344 486.835938 C 231.4375 484.207031 232.09375 481.578125 232.75 478.949219 C 230.121094 478.292969 228.808594 477.632812 226.835938 477.632812 C 211.070312 475.664062 196.617188 470.40625 181.507812 465.804688 C 162.457031 459.890625 144.71875 453.320312 125.664062 447.40625 C 116.46875 444.121094 106.613281 443.464844 96.757812 444.121094 C 88.21875 444.777344 80.335938 445.433594 71.792969 446.75 C 69.167969 444.121094 66.539062 444.121094 63.910156 441.492188 C 66.539062 436.890625 69.824219 433.605469 73.765625 430.976562 C 100.699219 409.949219 129.605469 392.207031 161.140625 377.75 C 183.476562 367.234375 206.472656 358.035156 228.808594 347.523438 C 250.488281 337.007812 272.824219 329.121094 296.476562 320.578125 C 295.816406 317.949219 295.160156 315.324219 294.503906 312.695312 C 291.875 300.207031 289.25 288.378906 286.621094 275.894531 C 285.964844 270.636719 285.964844 266.039062 285.964844 260.78125 C 285.964844 259.464844 287.277344 258.152344 287.933594 257.496094 C 290.5625 255.523438 293.847656 253.550781 296.476562 252.238281 C 315.527344 241.722656 335.890625 234.496094 356.914062 226.609375 C 373.996094 220.695312 391.078125 213.46875 408.816406 208.210938 C 433.777344 200.980469 459.402344 193.753906 484.363281 187.839844 C 506.703125 182.582031 529.695312 177.324219 552.6875 173.382812 C 571.742188 170.097656 590.792969 168.125 610.5 166.152344 C 632.179688 164.183594 653.859375 162.867188 675.539062 162.210938 C 704.445312 161.554688 734.007812 160.894531 762.914062 161.554688 C 782.625 162.210938 802.332031 164.183594 821.386719 165.496094 C 837.808594 166.808594 854.234375 167.46875 870.65625 169.4375 C 884.453125 170.753906 898.25 173.382812 912.046875 175.351562 C 925.839844 177.980469 939.636719 180.609375 952.777344 183.894531 C 975.113281 189.808594 996.792969 195.722656 1018.472656 201.636719 C 1046.722656 209.523438 1072.34375 222.667969 1098.621094 234.496094 C 1118.332031 243.039062 1137.382812 251.582031 1157.089844 260.78125 C 1166.289062 264.722656 1174.828125 269.324219 1183.371094 273.921875 C 1184.683594 274.582031 1185.996094 277.207031 1185.996094 279.179688 C 1185.996094 281.808594 1185.339844 283.78125 1184.027344 286.410156 C 1179.429688 301.523438 1174.171875 315.980469 1168.917969 331.09375 C 1168.257812 332.40625 1168.257812 333.722656 1167.601562 335.695312 C 1175.484375 339.636719 1182.710938 343.578125 1190.597656 347.523438 C 1205.050781 354.75 1219.503906 361.980469 1233.957031 368.550781 C 1255.636719 378.40625 1277.316406 388.265625 1298.996094 397.464844 C 1314.105469 403.378906 1330.527344 407.976562 1346.296875 413.234375 C 1352.863281 415.207031 1360.089844 415.207031 1367.316406 416.519531 C 1369.945312 417.179688 1372.574219 417.179688 1375.859375 417.835938 C 1374.542969 419.808594 1374.542969 421.121094 1373.230469 421.777344 C 1364.035156 427.691406 1354.835938 433.605469 1344.980469 438.863281 C 1331.84375 446.09375 1318.703125 453.320312 1305.5625 459.890625 C 1281.914062 471.71875 1257.605469 480.921875 1230.671875 482.890625 C 1229.355469 484.863281 1226.730469 485.519531 1222.128906 486.175781 Z M 1125.558594 492.089844 C 1131.46875 480.261719 1133.441406 468.433594 1136.070312 456.605469 C 1141.324219 433.605469 1145.265625 409.949219 1150.523438 386.949219 C 1157.089844 360.007812 1164.976562 333.722656 1174.171875 307.4375 C 1176.800781 300.207031 1178.113281 292.980469 1180.085938 286.410156 C 1180.742188 283.121094 1180.085938 280.496094 1176.800781 278.523438 C 1168.917969 274.582031 1161.691406 269.324219 1153.804688 265.378906 C 1140.011719 258.808594 1126.871094 252.894531 1113.074219 246.980469 C 1089.425781 236.464844 1065.773438 225.953125 1042.125 216.09375 C 1030.957031 211.496094 1019.785156 208.210938 1007.960938 204.265625 C 999.421875 201.636719 990.878906 199.011719 982.339844 197.039062 C 968.542969 193.753906 954.089844 190.46875 940.292969 187.179688 C 907.445312 179.296875 873.941406 174.695312 840.4375 172.066406 C 829.269531 171.410156 818.101562 170.753906 807.589844 170.097656 C 780.652344 167.46875 753.71875 166.152344 726.78125 166.152344 C 714.300781 166.152344 701.160156 166.808594 688.679688 166.808594 C 676.199219 166.808594 664.371094 167.46875 651.890625 168.125 C 635.464844 168.78125 619.699219 170.753906 603.273438 171.410156 C 575.027344 172.722656 547.433594 177.980469 519.839844 184.554688 C 494.21875 190.46875 468.597656 197.695312 442.976562 204.265625 C 427.210938 208.210938 410.785156 212.808594 395.019531 218.066406 C 376.625 223.980469 358.230469 231.210938 339.835938 237.78125 C 326.039062 243.039062 312.898438 248.953125 299.757812 255.523438 C 291.875 259.464844 288.589844 263.410156 290.5625 273.265625 C 293.847656 290.351562 297.132812 307.4375 301.074219 324.523438 C 306.328125 347.523438 311.585938 369.863281 316.839844 392.207031 C 322.753906 417.179688 328.664062 441.492188 335.234375 466.464844 C 335.890625 469.75 337.207031 473.035156 339.175781 476.976562 C 345.746094 467.777344 354.945312 465.804688 363.484375 462.519531 C 386.476562 453.976562 410.128906 446.75 433.121094 438.207031 C 468.597656 425.0625 504.730469 415.207031 541.519531 406.007812 C 555.316406 402.722656 569.113281 400.09375 582.910156 397.464844 C 601.960938 393.519531 621.667969 390.234375 640.722656 387.605469 C 650.574219 386.292969 660.429688 384.980469 670.941406 383.664062 C 686.707031 382.351562 701.820312 380.378906 717.585938 379.066406 C 732.695312 378.40625 747.804688 378.40625 762.257812 379.066406 C 773.425781 379.066406 784.59375 379.722656 795.105469 381.691406 C 821.386719 384.980469 847.007812 388.921875 872.628906 393.519531 C 889.050781 396.148438 905.476562 400.75 921.898438 404.691406 C 925.84375 405.351562 929.785156 407.976562 933.726562 409.292969 C 954.75 417.179688 975.769531 424.40625 996.792969 432.292969 C 1003.363281 434.921875 1009.277344 437.550781 1015.84375 440.179688 C 1041.464844 449.378906 1067.089844 457.921875 1092.050781 469.089844 C 1102.5625 473.691406 1112.417969 478.949219 1120.300781 487.492188 C 1121.617188 489.460938 1123.585938 490.777344 1125.558594 492.089844 Z M 238.664062 472.378906 C 238.664062 474.347656 238.664062 475.007812 238.664062 475.664062 C 231.4375 496.035156 225.523438 517.0625 217.640625 537.433594 C 212.382812 551.890625 205.15625 565.03125 197.929688 578.832031 C 189.390625 595.917969 184.132812 614.316406 180.851562 633.375 C 180.851562 634.6875 181.507812 636.660156 181.507812 638.632812 C 183.476562 637.316406 184.792969 636.003906 185.449219 635.347656 C 194.644531 628.117188 203.84375 619.574219 213.699219 613.003906 C 236.035156 597.234375 260.34375 585.40625 285.304688 575.546875 C 321.4375 561.746094 356.257812 543.347656 391.734375 526.917969 C 395.019531 525.605469 397.644531 522.976562 400.929688 521.003906 C 396.332031 513.777344 390.417969 511.148438 383.851562 508.519531 C 372.683594 503.917969 360.855469 499.320312 349.6875 494.71875 C 341.804688 491.433594 335.890625 485.519531 333.921875 476.976562 C 328.664062 457.921875 324.066406 438.863281 319.46875 419.808594 C 312.242188 390.234375 305.671875 361.320312 299.101562 331.75 C 298.445312 329.78125 297.789062 327.808594 297.132812 324.523438 C 278.078125 331.75 259.027344 338.320312 241.289062 346.207031 C 217.640625 356.066406 194.644531 367.894531 170.996094 377.75 C 136.832031 392.207031 105.300781 411.921875 75.738281 434.265625 C 74.421875 434.921875 73.765625 436.890625 71.792969 438.863281 C 79.679688 438.207031 86.246094 437.550781 92.816406 436.234375 C 105.300781 434.921875 117.125 436.234375 128.949219 440.179688 C 140.117188 443.464844 151.285156 448.0625 162.453125 452.007812 C 182.820312 457.921875 203.84375 463.835938 224.867188 469.75 C 228.808594 471.71875 233.40625 471.71875 238.664062 472.378906 Z M 1167.601562 342.265625 C 1164.316406 354.09375 1161.691406 364.609375 1158.40625 375.121094 C 1151.179688 396.808594 1147.894531 419.148438 1143.953125 441.492188 C 1140.667969 459.234375 1136.070312 476.320312 1131.46875 493.40625 C 1129.5 501.292969 1125.558594 505.234375 1118.332031 507.863281 C 1110.449219 510.492188 1101.90625 513.121094 1094.023438 516.40625 C 1083.511719 520.347656 1073.65625 525.605469 1065.117188 533.492188 C 1060.519531 537.433594 1061.175781 540.0625 1065.773438 543.347656 C 1069.714844 545.976562 1073.65625 548.605469 1078.257812 551.234375 C 1093.367188 559.117188 1108.476562 567.003906 1123.585938 574.890625 C 1145.265625 586.71875 1168.257812 596.574219 1191.910156 602.488281 C 1214.246094 608.402344 1235.925781 613.003906 1258.921875 614.316406 C 1264.832031 614.316406 1270.089844 614.976562 1277.316406 615.632812 C 1272.714844 607.089844 1268.117188 599.859375 1264.175781 592.632812 C 1256.292969 578.175781 1249.066406 563.71875 1241.839844 548.605469 C 1236.582031 536.777344 1232.640625 523.632812 1227.386719 511.804688 C 1223.445312 502.605469 1220.816406 493.40625 1219.503906 482.890625 C 1224.757812 481.578125 1229.355469 480.921875 1234.613281 480.261719 C 1240.523438 479.605469 1246.4375 478.949219 1252.351562 478.292969 C 1274.03125 473.691406 1294.394531 465.148438 1313.449219 454.632812 C 1328.558594 446.09375 1344.324219 438.207031 1360.09375 429.664062 C 1362.71875 428.347656 1365.347656 425.722656 1369.289062 423.09375 C 1365.347656 422.433594 1364.035156 422.433594 1362.0625 421.777344 C 1356.148438 421.121094 1350.238281 420.464844 1344.980469 419.148438 C 1325.929688 413.234375 1306.878906 407.320312 1289.140625 399.433594 C 1266.804688 389.578125 1244.46875 379.722656 1222.128906 369.207031 C 1206.363281 361.980469 1191.253906 354.09375 1176.144531 346.207031 C 1172.859375 344.894531 1170.886719 343.578125 1167.601562 342.265625 Z M 397.644531 508.519531 C 392.390625 492.089844 387.136719 476.976562 381.878906 461.207031 C 370.054688 463.835938 359.542969 467.777344 349.03125 472.378906 C 347.71875 473.035156 347.0625 473.691406 345.746094 474.347656 C 341.148438 478.292969 341.148438 481.578125 345.089844 485.519531 C 347.0625 487.492188 350.34375 489.460938 352.972656 490.777344 C 367.425781 496.691406 381.878906 502.605469 397.644531 508.519531 Z M 1090.082031 473.691406 C 1081.539062 491.433594 1072.34375 507.863281 1065.117188 526.261719 C 1082.199219 513.121094 1103.878906 509.832031 1122.273438 500.632812 C 1117.671875 489.460938 1102.5625 477.632812 1090.082031 473.691406 Z M 1090.082031 473.691406 " fill-opacity="1" fill-rule="nonzero"/></g></svg>