<svg xmlns="http://www.w3.org/2000/svg" xmlns:xlink="http://www.w3.org/1999/xlink" width="1920" zoomAndPan="magnify" viewBox="0 0 1440 809.999993" height="1080" preserveAspectRatio="xMidYMid meet" version="1.0"><path fill="#ffffff" d="M 1128.101562 561.460938 C 1230.613281 639.003906 1333.121094 483.9375 1435.632812 561.460938 C 1410.898438 499.703125 1386.183594 451.472656 1361.46875 410.230469 C 1386.183594 365.328125 1410.898438 327.417969 1435.632812 303.050781 C 1333.121094 225.539062 1230.613281 380.574219 1128.101562 303.050781 C 1128.101562 383.019531 1128.101562 462.992188 1128.101562 542.964844 C 1128.101562 548.457031 1125.042969 551.078125 1125.042969 556.554688 C 1125.042969 557.246094 1126.917969 561.917969 1128.101562 561.460938 " fill-opacity="1" fill-rule="nonzero"/><path fill="#231f20" d="M 1128.101562 561.460938 L 1125.671875 564.695312 C 1147.972656 581.601562 1170.683594 587.914062 1193.097656 587.882812 C 1223.714844 587.867188 1253.703125 576.40625 1283.296875 565.25 C 1312.886719 554.027344 1342.070312 543.089844 1370.636719 543.121094 C 1391.550781 543.152344 1412.164062 548.820312 1433.183594 564.695312 C 1434.636719 565.785156 1436.625 565.785156 1438.078125 564.679688 C 1439.515625 563.578125 1440.050781 561.652344 1439.371094 559.960938 C 1414.578125 498.015625 1389.765625 449.5625 1364.941406 408.148438 L 1361.46875 410.230469 L 1365.019531 412.1875 C 1389.625 367.425781 1414.246094 329.769531 1438.457031 305.921875 C 1439.292969 305.117188 1439.734375 303.964844 1439.65625 302.796875 C 1439.578125 301.628906 1438.992188 300.539062 1438.0625 299.828125 C 1415.761719 282.925781 1393.050781 276.613281 1370.636719 276.628906 C 1340.019531 276.660156 1310.03125 288.101562 1280.4375 299.277344 C 1250.847656 310.484375 1221.648438 321.421875 1193.097656 321.390625 C 1172.167969 321.355469 1151.554688 315.691406 1130.550781 299.828125 C 1129.316406 298.914062 1127.691406 298.757812 1126.304688 299.433594 C 1124.929688 300.113281 1124.0625 301.519531 1124.0625 303.050781 C 1124.0625 383.019531 1124.0625 462.992188 1124.0625 542.964844 C 1124.0625 544.921875 1123.574219 546.277344 1122.800781 548.332031 C 1122.027344 550.335938 1120.984375 553.035156 1121 556.554688 C 1121 557.027344 1121.046875 557.261719 1121.078125 557.484375 C 1121.238281 558.226562 1121.410156 558.714844 1121.664062 559.363281 C 1122.042969 560.308594 1122.515625 561.367188 1123.179688 562.410156 C 1123.511719 562.945312 1123.875 563.464844 1124.472656 564.050781 C 1124.773438 564.335938 1125.136719 564.648438 1125.671875 564.949219 C 1126.210938 565.234375 1126.964844 565.535156 1127.945312 565.535156 C 1128.511719 565.535156 1129.003906 565.421875 1129.300781 565.328125 L 1128.101562 561.460938 L 1125.671875 564.695312 L 1128.101562 561.460938 L 1126.917969 557.609375 L 1127.945312 560.925781 L 1127.945312 557.453125 C 1127.488281 557.453125 1127.109375 557.546875 1126.917969 557.609375 L 1127.945312 560.925781 L 1127.945312 557.453125 L 1127.945312 560.6875 L 1129.871094 558.050781 C 1129.617188 557.894531 1129.050781 557.484375 1127.945312 557.453125 L 1127.945312 560.6875 L 1129.871094 558.050781 L 1128.957031 559.300781 L 1130.15625 558.304688 L 1129.871094 558.050781 L 1128.957031 559.300781 L 1130.15625 558.304688 C 1130.105469 558.273438 1129.632812 557.5 1129.367188 556.851562 L 1129.050781 556.015625 L 1129.003906 555.90625 L 1129.003906 555.890625 L 1126.367188 556.554688 L 1129.066406 556.554688 C 1129.050781 555.921875 1129.003906 555.921875 1129.003906 555.890625 L 1126.367188 556.554688 L 1129.066406 556.554688 C 1129.082031 554.597656 1129.570312 553.253906 1130.34375 551.203125 C 1131.117188 549.199219 1132.160156 546.484375 1132.144531 542.964844 C 1132.144531 462.992188 1132.144531 383.019531 1132.144531 303.050781 L 1128.101562 303.050781 L 1125.671875 306.269531 C 1147.972656 323.171875 1170.683594 329.5 1193.097656 329.46875 C 1223.714844 329.4375 1253.703125 317.996094 1283.296875 306.835938 C 1312.886719 295.617188 1342.085938 284.695312 1370.636719 284.710938 C 1391.550781 284.742188 1412.164062 290.40625 1433.183594 306.269531 L 1435.632812 303.050781 L 1432.789062 300.175781 C 1407.554688 325.066406 1382.757812 363.214844 1357.933594 408.273438 C 1357.238281 409.550781 1357.269531 411.066406 1358.011719 412.296875 C 1382.617188 453.363281 1407.222656 501.390625 1431.875 562.976562 L 1435.632812 561.460938 L 1438.0625 558.242188 C 1415.761719 541.339844 1393.050781 535.007812 1370.636719 535.042969 C 1340.003906 535.074219 1310.03125 546.515625 1280.4375 557.6875 C 1250.847656 568.894531 1221.648438 579.832031 1193.097656 579.800781 C 1172.167969 579.785156 1151.554688 574.105469 1130.550781 558.242188 C 1129.507812 557.46875 1128.148438 557.230469 1126.917969 557.609375 L 1128.101562 561.460938 " fill-opacity="1" fill-rule="nonzero"/><path fill="#ffffff" d="M 311.894531 561.460938 C 209.382812 639.003906 106.875 483.9375 4.367188 561.460938 C 29.097656 499.703125 53.8125 451.472656 78.527344 410.230469 C 53.8125 365.328125 29.097656 327.417969 4.367188 303.050781 C 106.875 225.539062 209.382812 380.574219 311.894531 303.050781 C 311.894531 383.019531 311.894531 462.992188 311.894531 542.964844 C 311.894531 548.457031 314.972656 551.078125 314.972656 556.554688 C 314.972656 557.246094 313.078125 561.917969 311.894531 561.460938 " fill-opacity="1" fill-rule="nonzero"/><path fill="#231f20" d="M 311.894531 561.460938 L 309.449219 558.242188 C 288.425781 574.105469 267.8125 579.785156 246.898438 579.800781 C 218.347656 579.832031 189.152344 568.894531 159.558594 557.6875 C 129.964844 546.515625 99.976562 535.074219 69.359375 535.042969 C 46.949219 535.007812 24.234375 541.339844 1.933594 558.242188 L 4.367188 561.460938 L 8.121094 562.976562 C 32.773438 501.390625 57.378906 453.363281 82 412.296875 C 82.742188 411.066406 82.757812 409.550781 82.0625 408.273438 C 57.253906 363.214844 32.441406 325.066406 7.207031 300.175781 L 4.367188 303.050781 L 6.8125 306.269531 C 27.835938 290.40625 48.429688 284.742188 69.359375 284.710938 C 97.910156 284.695312 127.109375 295.617188 156.703125 306.835938 C 186.292969 317.996094 216.265625 329.4375 246.898438 329.46875 C 269.3125 329.5 292.023438 323.171875 314.324219 306.269531 L 311.894531 303.050781 L 307.855469 303.050781 C 307.855469 383.019531 307.855469 462.992188 307.855469 542.964844 C 307.835938 546.484375 308.878906 549.199219 309.652344 551.203125 C 310.425781 553.253906 310.914062 554.597656 310.929688 556.554688 L 314.085938 556.554688 L 310.980469 555.96875 C 310.960938 556.046875 310.929688 556.175781 310.929688 556.554688 L 314.085938 556.554688 L 310.980469 555.96875 L 311.988281 556.160156 L 310.996094 555.890625 L 310.980469 555.96875 L 311.988281 556.160156 L 310.996094 555.890625 C 310.960938 556.03125 310.550781 557.105469 310.1875 557.753906 L 309.953125 558.164062 L 309.859375 558.304688 L 310.285156 558.652344 L 309.890625 558.257812 L 309.859375 558.304688 L 310.285156 558.652344 L 309.890625 558.257812 L 311.53125 559.898438 L 310.378906 557.894531 L 309.890625 558.257812 L 311.53125 559.898438 L 310.378906 557.894531 L 312.050781 560.796875 L 312.050781 557.453125 C 311.246094 557.46875 310.695312 557.722656 310.378906 557.894531 L 312.050781 560.796875 L 312.050781 557.453125 L 312.050781 560.957031 L 313.15625 557.640625 C 312.871094 557.546875 312.492188 557.453125 312.050781 557.453125 L 312.050781 560.957031 L 313.15625 557.640625 C 311.894531 557.214844 310.519531 557.4375 309.449219 558.242188 L 311.894531 561.460938 L 310.601562 565.296875 C 310.996094 565.4375 311.484375 565.535156 312.050781 565.535156 C 313.457031 565.519531 314.339844 564.964844 314.925781 564.570312 C 315.902344 563.796875 316.328125 563.132812 316.769531 562.488281 C 317.402344 561.507812 317.859375 560.515625 318.222656 559.613281 C 318.414062 559.171875 318.570312 558.746094 318.695312 558.335938 L 318.871094 557.671875 C 318.917969 557.40625 318.996094 557.167969 318.996094 556.554688 C 319.011719 553.035156 317.96875 550.335938 317.195312 548.332031 C 316.421875 546.277344 315.933594 544.921875 315.933594 542.964844 C 315.933594 462.992188 315.933594 383.019531 315.933594 303.050781 C 315.933594 301.519531 315.066406 300.113281 313.675781 299.433594 C 312.320312 298.757812 310.664062 298.898438 309.449219 299.828125 C 288.425781 315.691406 267.8125 321.355469 246.898438 321.390625 C 218.347656 321.421875 189.152344 310.484375 159.558594 299.277344 C 129.964844 288.101562 99.976562 276.660156 69.359375 276.628906 C 46.949219 276.613281 24.234375 282.925781 1.933594 299.828125 C 1.003906 300.539062 0.417969 301.628906 0.339844 302.796875 C 0.261719 303.964844 0.703125 305.117188 1.539062 305.921875 C 25.765625 329.769531 50.371094 367.425781 74.992188 412.1875 L 78.527344 410.230469 L 75.058594 408.148438 C 50.246094 449.5625 25.4375 498.015625 0.625 559.960938 C -0.0546875 561.652344 0.484375 563.578125 1.917969 564.679688 C 3.371094 565.785156 5.359375 565.785156 6.8125 564.695312 C 27.835938 548.820312 48.429688 543.152344 69.359375 543.121094 C 97.910156 543.089844 127.109375 554.027344 156.703125 565.25 C 186.292969 576.40625 216.28125 587.867188 246.898438 587.882812 C 269.3125 587.914062 292.023438 581.601562 314.324219 564.695312 L 311.894531 561.460938 L 310.601562 565.296875 L 311.894531 561.460938 " fill-opacity="1" fill-rule="nonzero"/><path fill="#ffffff" d="M 1174.488281 506.949219 C 790.273438 429.421875 649.726562 584.472656 265.523438 506.949219 C 265.523438 420.804688 265.523438 334.664062 265.523438 248.535156 C 649.726562 326.0625 790.273438 171.011719 1174.488281 248.535156 C 1174.488281 334.664062 1174.488281 420.804688 1174.488281 506.949219 " fill-opacity="1" fill-rule="nonzero"/><path fill="#231f20" d="M 1174.488281 506.949219 L 1175.277344 502.984375 C 1093.839844 486.539062 1023.226562 480.527344 958.957031 480.527344 C 871.144531 480.527344 795.148438 491.765625 719.40625 502.9375 C 643.664062 514.128906 568.175781 525.269531 481.054688 525.269531 C 417.277344 525.269531 347.261719 519.304688 266.328125 502.984375 L 265.523438 506.949219 L 269.5625 506.949219 C 269.5625 420.804688 269.5625 334.664062 269.5625 248.535156 L 265.523438 248.535156 L 264.71875 252.496094 C 346.160156 268.925781 416.769531 274.957031 481.039062 274.957031 C 568.855469 274.957031 644.847656 263.71875 720.574219 252.527344 C 796.332031 241.339844 871.820312 230.195312 958.941406 230.195312 C 1022.722656 230.195312 1092.734375 236.160156 1173.683594 252.496094 L 1174.488281 248.535156 L 1170.449219 248.535156 C 1170.449219 334.664062 1170.449219 420.804688 1170.449219 506.949219 L 1174.488281 506.949219 L 1175.277344 502.984375 L 1174.488281 506.949219 L 1178.527344 506.949219 C 1178.527344 420.804688 1178.527344 334.664062 1178.527344 248.535156 C 1178.527344 246.609375 1177.171875 244.953125 1175.277344 244.574219 C 1093.824219 228.128906 1023.226562 222.113281 958.941406 222.113281 C 871.125 222.113281 795.132812 233.335938 719.40625 244.542969 C 643.648438 255.730469 568.160156 266.875 481.039062 266.875 C 417.277344 266.875 347.261719 260.910156 266.328125 244.574219 C 265.128906 244.335938 263.898438 244.636719 262.96875 245.410156 C 262.019531 246.167969 261.484375 247.320312 261.484375 248.535156 C 261.484375 334.664062 261.484375 420.804688 261.484375 506.949219 C 261.484375 508.875 262.839844 510.53125 264.71875 510.910156 C 346.175781 527.339844 416.769531 533.351562 481.054688 533.351562 C 568.871094 533.351562 644.863281 522.128906 720.589844 510.941406 C 796.332031 499.75 871.835938 488.609375 958.957031 488.609375 C 1022.722656 488.609375 1092.75 494.574219 1173.683594 510.910156 C 1174.867188 511.144531 1176.097656 510.847656 1177.046875 510.074219 C 1177.976562 509.300781 1178.527344 508.164062 1178.527344 506.949219 L 1174.488281 506.949219 " fill-opacity="1" fill-rule="nonzero"/><path fill="#ffffff" d="M 318.082031 516.148438 C 281.953125 512.597656 264.371094 501.550781 265.523438 506.949219 C 265.082031 522.476562 286.671875 533.542969 302.898438 545.582031 C 313.835938 553.695312 314.261719 559.929688 311.894531 561.460938 C 323.953125 559.726562 322.152344 516.542969 318.082031 516.148438 " fill-opacity="1" fill-rule="nonzero"/><path fill="#231f20" d="M 318.082031 516.148438 L 318.476562 512.125 C 304.128906 510.71875 292.78125 508.101562 284.382812 505.84375 C 280.171875 504.707031 276.714844 503.648438 273.921875 502.859375 C 272.515625 502.464844 271.269531 502.132812 270.148438 501.882812 C 269.011719 501.644531 268.035156 501.457031 266.898438 501.4375 C 266.011719 501.472656 264.910156 501.503906 263.550781 502.386719 C 262.886719 502.828125 262.257812 503.539062 261.894531 504.3125 C 261.53125 505.085938 261.421875 505.859375 261.421875 506.488281 C 261.421875 507.011719 261.5 507.453125 261.578125 507.832031 L 265.523438 506.949219 L 261.484375 506.820312 L 261.46875 507.40625 C 261.46875 512.203125 263.171875 516.574219 265.746094 520.394531 C 269.613281 526.15625 275.371094 530.953125 281.621094 535.5625 C 287.871094 540.140625 294.628906 544.480469 300.5 548.835938 C 304.066406 551.472656 306.292969 553.824219 307.539062 555.605469 C 308.816406 557.390625 309.039062 558.636719 309.023438 558.890625 L 309.003906 558.9375 L 309.304688 558.96875 L 309.023438 558.890625 L 309.003906 558.9375 L 309.304688 558.96875 L 309.023438 558.890625 L 310.472656 559.316406 L 309.667969 558.082031 C 309.273438 558.335938 309.054688 558.746094 309.023438 558.890625 L 310.472656 559.316406 L 309.667969 558.082031 C 308.089844 559.125 307.441406 561.128906 308.105469 562.898438 C 308.769531 564.664062 310.585938 565.738281 312.460938 565.46875 C 313.992188 565.25 315.429688 564.632812 316.613281 563.78125 C 318.679688 562.28125 320.054688 560.246094 321.125 558.019531 C 322.722656 554.675781 323.667969 550.714844 324.300781 546.484375 C 324.929688 542.269531 325.183594 537.820312 325.183594 533.605469 C 325.183594 528.773438 324.851562 524.277344 324.25 520.773438 C 323.9375 519.003906 323.589844 517.507812 323.035156 516.132812 C 322.753906 515.453125 322.453125 514.777344 321.867188 514.050781 C 321.570312 513.671875 321.191406 513.277344 320.652344 512.914062 C 320.101562 512.550781 319.34375 512.203125 318.476562 512.125 L 317.6875 520.171875 L 318.019531 516.84375 L 316.15625 519.621094 C 316.488281 519.859375 317.039062 520.109375 317.6875 520.171875 L 318.019531 516.84375 L 316.15625 519.621094 L 317.324219 517.886719 L 315.445312 518.941406 C 315.460938 518.925781 315.523438 519.179688 316.15625 519.621094 L 317.324219 517.886719 L 315.445312 518.941406 C 315.476562 518.941406 315.730469 519.542969 315.933594 520.410156 C 316.597656 523.078125 317.117188 528.160156 317.101562 533.605469 C 317.117188 539.507812 316.519531 545.980469 315.207031 550.714844 C 314.5625 553.082031 313.726562 555.007812 312.9375 556.109375 C 312.542969 556.664062 312.179688 557.011719 311.925781 557.199219 L 311.308594 557.46875 L 311.894531 561.460938 L 314.105469 564.839844 C 315.113281 564.191406 315.902344 563.230469 316.390625 562.1875 C 316.882812 561.128906 317.101562 560.007812 317.101562 558.890625 C 317.070312 556.269531 316.042969 553.695312 314.152344 550.964844 C 312.242188 548.25 309.398438 545.378906 305.3125 542.347656 C 297.074219 536.242188 287.777344 530.542969 280.769531 524.671875 C 277.28125 521.734375 274.378906 518.785156 272.453125 515.914062 C 270.527344 512.992188 269.5625 510.277344 269.546875 507.40625 L 269.5625 507.074219 L 269.46875 506.046875 L 267.527344 506.488281 L 269.5 506.488281 L 269.46875 506.046875 L 267.527344 506.488281 L 269.5 506.488281 L 266.519531 506.488281 L 269.203125 507.753906 C 269.453125 507.230469 269.5 506.757812 269.5 506.488281 L 266.519531 506.488281 L 269.203125 507.753906 L 266.34375 506.410156 L 267.527344 509.363281 C 268 509.203125 268.855469 508.574219 269.203125 507.753906 L 266.34375 506.410156 L 267.527344 509.363281 L 266.660156 507.199219 L 267.007812 509.519531 L 267.527344 509.363281 L 266.660156 507.199219 L 267.007812 509.519531 L 266.898438 508.761719 L 266.898438 509.519531 L 267.007812 509.519531 L 266.898438 508.761719 L 266.898438 509.519531 C 266.960938 509.519531 267.558594 509.582031 268.414062 509.773438 C 271.441406 510.4375 277.425781 512.425781 285.679688 514.539062 C 293.949219 516.636719 304.648438 518.878906 317.6875 520.171875 L 318.082031 516.148438 " fill-opacity="1" fill-rule="nonzero"/><path fill="#ffffff" d="M 1111.941406 496.308594 C 1162.210938 504.628906 1175.640625 501.550781 1174.488281 506.949219 C 1174.914062 522.476562 1153.339844 533.542969 1137.097656 545.582031 C 1126.144531 553.695312 1125.734375 559.929688 1128.101562 561.460938 C 1116.042969 559.726562 1107.902344 495.648438 1111.941406 496.308594 " fill-opacity="1" fill-rule="nonzero"/><path fill="#231f20" d="M 1111.941406 496.308594 L 1111.277344 500.289062 C 1135.550781 504.3125 1151.382812 505.699219 1160.960938 506.632812 C 1165.746094 507.089844 1168.996094 507.484375 1170.558594 507.894531 C 1170.953125 507.988281 1171.222656 508.082031 1171.347656 508.148438 L 1171.441406 508.179688 L 1171.554688 507.972656 L 1171.410156 508.164062 L 1171.441406 508.179688 L 1171.554688 507.972656 L 1171.410156 508.164062 L 1172.4375 506.570312 L 1170.84375 507.53125 C 1171.0625 507.925781 1171.347656 508.132812 1171.410156 508.164062 L 1172.4375 506.570312 L 1170.84375 507.53125 L 1172.816406 506.347656 L 1170.511719 506.347656 C 1170.496094 506.617188 1170.589844 507.136719 1170.84375 507.53125 L 1172.816406 506.347656 L 1170.511719 506.347656 L 1172.074219 506.347656 L 1170.511719 506.175781 L 1170.511719 506.347656 L 1172.074219 506.347656 L 1170.511719 506.175781 L 1171.109375 506.238281 L 1170.511719 506.144531 L 1170.511719 506.175781 L 1171.109375 506.238281 L 1170.511719 506.144531 L 1170.511719 506.160156 L 1170.449219 507.042969 L 1170.449219 507.40625 C 1170.449219 510.261719 1169.484375 512.992188 1167.542969 515.898438 C 1164.671875 520.238281 1159.558594 524.6875 1153.59375 529.042969 C 1147.640625 533.429688 1140.871094 537.769531 1134.683594 542.347656 C 1130.597656 545.378906 1127.753906 548.25 1125.847656 550.964844 C 1123.9375 553.695312 1122.925781 556.269531 1122.894531 558.890625 C 1122.894531 560.007812 1123.101562 561.128906 1123.605469 562.1875 C 1124.09375 563.246094 1124.898438 564.207031 1125.910156 564.855469 L 1128.101562 561.460938 L 1128.6875 557.46875 L 1128.640625 557.785156 L 1128.734375 557.484375 L 1128.6875 557.46875 L 1128.640625 557.785156 L 1128.734375 557.484375 L 1128.65625 557.4375 C 1128.417969 557.34375 1127.613281 556.664062 1126.777344 555.371094 C 1125.277344 553.113281 1123.605469 549.214844 1122.167969 544.589844 C 1119.976562 537.628906 1118.128906 528.996094 1116.882812 521.011719 C 1115.617188 513.023438 1114.925781 505.605469 1114.925781 501.28125 C 1114.925781 499.875 1115.019531 498.773438 1115.097656 498.378906 L 1115.128906 498.265625 L 1115.128906 498.234375 L 1112.953125 497.589844 L 1114.734375 498.960938 C 1115.097656 498.457031 1115.113281 498.265625 1115.128906 498.234375 L 1112.953125 497.589844 L 1114.734375 498.960938 L 1111.972656 496.847656 L 1113.742188 499.828125 C 1114.246094 499.53125 1114.546875 499.199219 1114.734375 498.960938 L 1111.972656 496.847656 L 1113.742188 499.828125 L 1111.863281 496.65625 L 1111.878906 500.335938 C 1112.542969 500.351562 1113.25 500.128906 1113.742188 499.828125 L 1111.863281 496.65625 L 1111.878906 500.335938 L 1111.878906 496.5625 L 1110.914062 500.207031 C 1111.011719 500.238281 1111.390625 500.335938 1111.878906 500.335938 L 1111.878906 496.5625 L 1110.914062 500.207031 L 1111.277344 500.289062 L 1111.941406 496.308594 L 1112.953125 492.394531 C 1112.808594 492.363281 1112.398438 492.253906 1111.878906 492.253906 C 1110.820312 492.238281 1109.761719 492.695312 1109.132812 493.214844 C 1108.011719 494.164062 1107.742188 494.96875 1107.492188 495.582031 C 1107.175781 496.546875 1107.0625 497.335938 1106.96875 498.265625 C 1106.890625 499.167969 1106.84375 500.175781 1106.84375 501.28125 C 1106.859375 505.335938 1107.332031 510.988281 1108.183594 517.347656 C 1109.464844 526.882812 1111.59375 537.929688 1114.433594 546.957031 C 1115.871094 551.488281 1117.449219 555.511719 1119.359375 558.730469 C 1120.320312 560.339844 1121.347656 561.761719 1122.640625 562.960938 C 1123.90625 564.144531 1125.53125 565.171875 1127.535156 565.46875 C 1129.414062 565.738281 1131.226562 564.664062 1131.890625 562.882812 C 1132.570312 561.097656 1131.90625 559.109375 1130.3125 558.082031 L 1129.414062 559.441406 L 1130.914062 558.746094 L 1130.3125 558.082031 L 1129.414062 559.441406 L 1130.914062 558.746094 L 1130.15625 559.09375 L 1130.976562 558.9375 L 1130.914062 558.746094 L 1130.15625 559.09375 L 1130.976562 558.9375 L 1130.878906 558.953125 L 1130.976562 558.9375 L 1130.878906 558.953125 L 1130.976562 558.9375 L 1130.976562 558.890625 C 1130.960938 558.636719 1131.179688 557.40625 1132.460938 555.605469 C 1133.707031 553.824219 1135.929688 551.472656 1139.5 548.835938 C 1147.34375 543.011719 1156.734375 537.28125 1164.417969 530.859375 C 1168.253906 527.640625 1171.695312 524.230469 1174.269531 520.394531 C 1176.824219 516.558594 1178.527344 512.1875 1178.527344 507.40625 L 1178.511719 506.835938 L 1174.488281 506.949219 L 1178.449219 507.722656 C 1178.511719 507.34375 1178.59375 506.898438 1178.59375 506.347656 C 1178.59375 505.542969 1178.417969 504.613281 1177.992188 503.773438 C 1177.613281 503 1177.046875 502.339844 1176.460938 501.867188 C 1175.355469 500.964844 1174.269531 500.570312 1173.148438 500.222656 C 1171.191406 499.65625 1168.902344 499.355469 1165.824219 499.007812 C 1156.652344 498 1140.351562 496.910156 1112.589844 492.316406 L 1111.941406 496.308594 L 1112.953125 492.394531 L 1111.941406 496.308594 " fill-opacity="1" fill-rule="nonzero"/></svg>